<svg xmlns="http://www.w3.org/2000/svg" height="512pt" viewBox="0 -40 512 512" width="512pt"><path d="m502 138c5.523438 0 10-4.476562 10-10v-40c0-5.523438-4.476562-10-10-10h-10.535156c5.988281-8.125 9.535156-18.15625 9.535156-29 0-27.019531-21.980469-49-49-49s-49 21.980469-49 49c0 10.84375 3.546875 20.875 9.535156 29h-10.535156c-5.523438 0-10 4.476562-10 10v40c0 5.523438 4.476562 10 10 10h4v19.339844l-16.363281-5.085938c-17.214844-5.355468-32.460938-16.386718-42.929688-31.0625-19.285156-27.046875-50.632812-43.191406-83.851562-43.191406h-13.457031c-33.21875 0-64.566407 16.144531-83.851563 43.191406-10.46875 14.675782-25.714844 25.707032-42.929687 31.0625l-16.617188 5.164063v-19.417969h4c5.523438 0 10-4.476562 10-10v-40c0-5.523438-4.476562-10-10-10h-10.535156c5.988281-8.125 9.535156-18.15625 9.535156-29 0-27.019531-21.980469-49-49-49s-49 21.980469-49 49c0 10.84375 3.546875 20.875 9.535156 29h-10.535156c-5.523438 0-10 4.476562-10 10v40c0 5.523438 4.476562 10 10 10h4v234h-4c-5.523438 0-10 4.476562-10 10v40c0 5.523438 4.476562 10 10 10h100c5.523438 0 10-4.476562 10-10v-30h272v30c0 5.523438 4.476562 10 10 10h100c5.523438 0 10-4.476562 10-10v-40c0-5.523438-4.476562-10-10-10h-4v-234zm-79-89c0-15.988281 13.011719-29 29-29s29 13.011719 29 29-13.011719 29-29 29-29-13.011719-29-29zm-11 49h80v20h-80zm-283.441406 73.351562c21.363281-6.644531 40.28125-20.332031 53.269531-38.546874 14.910156-20.902344 38.757813-33.726563 64.300781-34.738282v91.933594c0 5.523438 4.476563 10 10 10 5.519532 0 10-4.476562 10-10v-91.925781c25.539063 1.011719 49.390625 13.828125 64.296875 34.730469 12.988281 18.214843 31.90625 31.902343 53.269531 38.546874l22.304688 6.933594v193.714844h-139.871094v-92c0-5.523438-4.480468-10-10-10-5.523437 0-10 4.476562-10 10v92h-140.128906v-193.636719zm-97.558594-122.351562c0-15.988281 13.011719-29 29-29s29 13.011719 29 29-13.011719 29-29 29-29-13.011719-29-29zm-11 49h80v20h-80zm14 40h52v32.945312.101563 200.953125h-52zm66 274h-80v-20h80zm392 0h-80v-20h80zm-14-40h-52v-234h52zm0 0" fill="#ffffff"/><path d="m256.128906 245c2.632813 0 5.210938-1.070312 7.070313-2.929688 1.859375-1.859374 2.929687-4.441406 2.929687-7.070312s-1.070312-5.210938-2.929687-7.070312c-1.859375-1.859376-4.4375-2.929688-7.070313-2.929688-2.628906 0-5.207031 1.070312-7.070312 2.929688-1.867188 1.859374-2.929688 4.441406-2.929688 7.070312s1.0625 5.210938 2.929688 7.070312c1.863281 1.859376 4.429687 2.929688 7.070312 2.929688zm0 0" fill="#ffffff"/></svg>