<svg height="512" viewBox="0 0 25 25" width="512" xmlns="http://www.w3.org/2000/svg"><g><path d="m10.354 14.646c-.195-.195-.512-.195-.707 0l-3.147 3.147v-2.793c0-.276-.224-.5-.5-.5s-.5.224-.5.5v4c0 .065.013.13.039.191.05.122.148.22.271.271.06.024.125.038.19.038h4c.276 0 .5-.224.5-.5s-.224-.5-.5-.5h-2.793l3.146-3.146c.196-.196.196-.512.001-.708z"/><path d="m19.191 5.538c-.061-.024-.126-.038-.191-.038h-4c-.276 0-.5.224-.5.5s.224.5.5.5h2.793l-3.146 3.146c-.195.195-.195.512 0 .707.097.098.225.147.353.147s.256-.049.354-.146l3.146-3.147v2.793c0 .276.224.5.5.5s.5-.224.5-.5v-4c0-.065-.013-.13-.039-.191-.05-.122-.148-.22-.27-.271z"/><path d="m20 2.5h-15c-1.378 0-2.5 1.121-2.5 2.5v15c0 1.379 1.122 2.5 2.5 2.5h15c1.378 0 2.5-1.121 2.5-2.5v-15c0-1.379-1.122-2.5-2.5-2.5zm1.5 17.5c0 .827-.673 1.5-1.5 1.5h-15c-.827 0-1.5-.673-1.5-1.5v-15c0-.827.673-1.5 1.5-1.5h15c.827 0 1.5.673 1.5 1.5z"/></g></svg>